<svg id="Capa_1" enable-background="new 0 0 512 512" height="512" viewBox="0 0 512 512" width="512" xmlns="http://www.w3.org/2000/svg" xmlns:xlink="http://www.w3.org/1999/xlink"><linearGradient id="SVGID_1_" gradientUnits="userSpaceOnUse" x1="256" x2="256" y1="512" y2="0"><stop offset="0" stop-color="#5558ff"/><stop offset="1" stop-color="#00c0ff"/></linearGradient><g><g><g><path d="m256 332c-8.284 0-15 6.716-15 15s6.716 15 15 15 15-6.716 15-15-6.716-15-15-15zm0-150c-24.813 0-45 20.187-45 45 0 8.284 6.716 15 15 15s15-6.716 15-15c0-8.271 6.729-15 15-15s15 6.729 15 15c0 5.34-2.878 10.322-7.51 13.002-13.872 8.024-22.489 22.956-22.49 38.97v8.028c0 8.284 6.716 15 15 15s15-6.716 15-15v-8.027c0-5.341 2.878-10.323 7.512-13.003 13.871-8.024 22.488-22.957 22.488-38.97 0-24.813-20.187-45-45-45zm132.718 151.101c4.562-41.153 2.505-83.079-6.317-124.529-16.835-79.1-56.819-149.634-115.647-204.03-2.93-3.015-6.838-4.542-10.758-4.542-.009 0-.016 0-.024 0-3.919 0-7.828 1.527-10.757 4.542-58.828 54.396-98.813 124.929-115.648 204.03-8.823 41.453-10.878 83.38-6.316 124.535-35.301 6.073-62.251 36.885-62.251 73.893v90c0 8.284 6.716 15 15 15s15-6.716 15-15c0-24.813 20.187-45 45-45h45v45c0 8.284 6.716 15 15 15h120c8.284 0 15-6.716 15-15v-45h45c24.813 0 45 20.187 45 45 0 8.284 6.716 15 15 15s15-6.716 15-15v-90c0-37.019-26.966-67.839-62.282-73.899zm-132.734-297.32c17.392 17.329 32.729 36.189 45.934 56.219h-91.868c13.205-20.03 28.542-38.89 45.934-56.219zm-119.984 386.219c-16.871 0-32.456 5.603-45 15.041v-30.041c0-21.982 15.848-40.321 36.715-44.222 3.822 20.052 9.235 39.843 16.247 59.222zm165 60h-90v-30h90zm34.927-60h-159.886c-38.839-98.02-32.318-207.814 16.284-300h127.317c48.052 91.142 55.566 200.863 16.285 300zm85.073 15.041c-12.544-9.438-28.129-15.041-45-15.041h-7.994c7.013-19.381 12.426-39.175 16.248-59.228 20.883 3.889 36.746 22.235 36.746 44.228z" fill="url(#SVGID_1_)"/></g></g></g></svg>